<?xml version="1.0" encoding="UTF-8" standalone="no"?>
<!DOCTYPE svg PUBLIC "-//W3C//DTD SVG 1.1//EN" "http://www.w3.org/Graphics/SVG/1.1/DTD/svg11.dtd">
<svg width="100%" height="100%" viewBox="0 0 48 32" version="1.1" xmlns="http://www.w3.org/2000/svg" xmlns:xlink="http://www.w3.org/1999/xlink" xml:space="preserve" xmlns:serif="http://www.serif.com/" style="fill-rule:evenodd;clip-rule:evenodd;stroke-linejoin:round;stroke-miterlimit:2;">
    <g transform="matrix(1,0,0,1,-7,0)">
        <path d="M48.25,0L48.25,20.12C48.25,23.71 46.09,25.86 42.78,25.86C39.47,25.86 37.36,23.71 37.36,20.12L37.36,2C37.333,0.922 36.439,0.05 35.36,0.05L25.86,0.05C24.99,0.052 24.165,0.44 23.61,1.11L13.8,13.13L13.8,0L7.67,0L7.67,30.77L13.8,30.77L13.8,21.38L17.86,16.56L25.92,30.77L33.07,30.77L21.91,12L30.85,1.29C30.905,1.222 30.999,1.197 31.08,1.23C31.166,1.257 31.224,1.34 31.22,1.43L31.22,20.34C31.22,26.96 36.34,31.34 42.78,31.34C49.22,31.34 54.33,27 54.33,20.34L54.33,0L48.25,0Z" style="fill:rgb(0,102,94);fill-rule:nonzero;"/>
    </g>
</svg>
